# xmcd
#
# Track frame offsets:
#	150
#	9537
#	20758
#	33118
#	42218
#	55133
#	67420
#	77397
#	87504
#	96462
#	106712
#	115394
#	126998
#	138918
#	149382
#	160689
#
# Disc length: 2289 seconds
#
# Revision: 0
# Processed by: cddbd v1.5.2PL0 Copyright (c) Steve Scherf et al.
# Submitted via: audiograbber 1.83.01
#
DISCID=d708ef10
DTITLE=Barbara Lynn - The Jamie Singles Collection, 1962-1965 [CD2]
DYEAR=1900
DGENRE=R&B
TTITLE0=Oh! Baby (We Got A Good Thing Goin')
TTITLE1=Unfair
TTITLE2=Don't Spread It Around
TTITLE3=Let Her Knock Herself Out
TTITLE4=It's Better To Have It
TTITLE5=People Gonna Talk
TTITLE6=(Don't Pretend) Just Lay It On The Line
TTITLE7=Careless Hands (w/Lee Maye)
TTITLE8=I've Taken All I'm Gonna Take
TTITLE9=Keep On Pushing Your Luck
TTITLE10=Can't Buy My Love
TTITLE11=That's What A Friend Will Do
TTITLE12=All I Need Is Your Love
TTITLE13=You're Gonna Be Sorry
TTITLE14=Silly of Me
TTITLE15=That's Something I Can't Take
EXTD=
EXTT0=
EXTT1=
EXTT2=
EXTT3=
EXTT4=
EXTT5=
EXTT6=
EXTT7=
EXTT8=
EXTT9=
EXTT10=
EXTT11=
EXTT12=
EXTT13=
EXTT14=
EXTT15=
PLAYORDER=
